<svg xmlns="http://www.w3.org/2000/svg" xmlns:xlink="http://www.w3.org/1999/xlink" version="1.1" x="0px" y="0px" viewBox="0 0 100 100" style="enable-background:new 0 0 100 100;" xml:space="preserve"><path d="M81.3,30H63.9c-1,0-2-0.5-2.6-1.4l-8.8-14.4c-1.2-1.9-3.9-1.9-5.1,0l-8.8,14.4c-0.5,0.9-1.5,1.4-2.6,1.4H18.7  c-2.3,0-3.8,2.6-2.6,4.6l8.5,13.9c0.6,1,0.6,2.2,0,3.1l-8.5,13.9c-1.2,2,0.2,4.6,2.6,4.6h17.4c1,0,2,0.5,2.6,1.4l8.8,14.4  c1.2,1.9,3.9,1.9,5.1,0l8.8-14.4c0.5-0.9,1.5-1.4,2.6-1.4h17.4c2.3,0,3.8-2.6,2.6-4.6l-8.5-13.9c-0.6-1-0.6-2.2,0-3.1l8.5-13.9  C85.1,32.6,83.7,30,81.3,30z M60.8,56.7h-4.4c-1,0-2,0.5-2.6,1.4L51,62.8c-0.5,0.8-1.6,0.8-2,0l-2.9-4.7c-0.5-0.9-1.5-1.4-2.6-1.4  h-4.4c-0.9,0-1.5-1-1-1.8l2-3.3c0.6-1,0.6-2.2,0-3.1l-2-3.3c-0.5-0.8,0.1-1.8,1-1.8h4.4c1,0,2-0.5,2.6-1.4l2.9-4.7  c0.5-0.8,1.6-0.8,2,0l2.9,4.7c0.5,0.9,1.5,1.4,2.6,1.4h4.4c0.9,0,1.5,1,1,1.8l-2,3.3c-0.6,1-0.6,2.2,0,3.1l2,3.3  C62.3,55.7,61.7,56.7,60.8,56.7z"/></svg>