<svg xmlns="http://www.w3.org/2000/svg" xmlns:xlink="http://www.w3.org/1999/xlink" version="1.1" x="0px" y="0px" viewBox="0 0 100 100" style="enable-background:new 0 0 100 100;" xml:space="preserve"><path d="M10,42.3v42.1c0,2.4,2.7,3.8,4.7,2.5L50,63.3L14.7,39.8C12.7,38.4,10,39.9,10,42.3z"/><path d="M43.3,25.3c0,7.4-6,13.3-13.3,13.3s-13.3-6-13.3-13.3S22.6,12,30,12S43.3,18,43.3,25.3z"/><path d="M90,42.3v42.1c0,2.4-2.7,3.8-4.7,2.5L50,63.3l35.3-23.6C87.3,38.4,90,39.9,90,42.3z"/><path d="M56.7,25.3c0,7.4,6,13.3,13.3,13.3s13.3-6,13.3-13.3S77.4,12,70,12S56.7,18,56.7,25.3z"/></svg>