<svg xmlns="http://www.w3.org/2000/svg" xmlns:xlink="http://www.w3.org/1999/xlink" version="1.1" x="0px" y="0px" viewBox="0 0 100 100" style="enable-background:new 0 0 100 100;" xml:space="preserve"><circle cx="73.3" cy="26.7" r="16.7"/><path d="M67.7,65.3l-33-33c-1.3-1.3-1.3-3.4,0-4.7l0,0c1.3-1.3,3.4-1.3,4.7,0l33,33c1.3,1.3,1.3,3.4,0,4.7l0,0  C71.2,66.6,69,66.6,67.7,65.3z"/><path d="M63,79.4L20.6,37c-1.3-1.3-1.3-3.4,0-4.7l0,0c1.3-1.3,3.4-1.3,4.7,0l42.4,42.4c1.3,1.3,1.3,3.4,0,4.7v0  C66.4,80.7,64.3,80.7,63,79.4z"/><path d="M10,43.9V87c0,1.7,1.3,3,3,3h43.1c2.7,0,4-3.2,2.1-5.1L15.1,41.8C13.2,39.9,10,41.2,10,43.9z"/></svg>