<svg xmlns="http://www.w3.org/2000/svg" xmlns:xlink="http://www.w3.org/1999/xlink" version="1.1" x="0px" y="0px" viewBox="0 0 100 100" style="enable-background:new 0 0 100 100;" xml:space="preserve"><path d="M14.2,81.7l-2,4c-1,2,0.5,4.3,2.7,4.3h70.3c2.2,0,3.7-2.3,2.7-4.3L52.7,15.4c-1.1-2.2-4.3-2.2-5.4,0L20.5,69  c-1,2,0.5,4.3,2.7,4.3h35c2.2,0,3.7-2.3,2.7-4.3l-8.2-16.4c-1.1-2.2-4.3-2.2-5.4,0l-4.4,8.9c-0.6,1.1-1.7,1.8-3,1.8h0  c-2.5,0-4.1-2.6-3-4.8l10.4-20.8c1.1-2.2,4.3-2.2,5.4,0l19,37.9c1,2-0.5,4.3-2.7,4.3H16.9C15.7,80,14.7,80.6,14.2,81.7z"/></svg>