<svg xmlns="http://www.w3.org/2000/svg" xmlns:xlink="http://www.w3.org/1999/xlink" version="1.1" x="0px" y="0px" viewBox="0 0 100 100" style="enable-background:new 0 0 100 100;" xml:space="preserve"><path d="M13,10h30.7c1.7,0,3,1.3,3,3v30.7c0,1.7-1.3,3-3,3H13c-1.7,0-3-1.3-3-3V13C10,11.3,11.3,10,13,10z"/><path d="M83.3,53.3H60c-3.7,0-6.7,3-6.7,6.7v23.3c0,3.7,3,6.7,6.7,6.7h23.3c3.7,0,6.7-3,6.7-6.7V60C90,56.3,87,53.3,83.3,53.3z"/><path d="M90,28.3c0,10.1-8.2,18.3-18.3,18.3c-10.1,0-18.3-8.2-18.3-18.3c0-10.1,8.2-18.3,18.3-18.3C81.8,10,90,18.2,90,28.3z"/><path d="M27.4,58.2L12.4,85.6c-1.1,2,0.4,4.4,2.6,4.4h29.9c2.3,0,3.7-2.4,2.6-4.4L32.6,58.2C31.5,56.1,28.5,56.1,27.4,58.2z"/></svg>