<svg xmlns="http://www.w3.org/2000/svg" xmlns:xlink="http://www.w3.org/1999/xlink" version="1.1" x="0px" y="0px" viewBox="0 0 100 100" style="enable-background:new 0 0 100 100;" xml:space="preserve"><path d="M90,76.7V60.6c0-2.3-2.5-3.8-4.5-2.6l-14,8.1c-0.9,0.5-1.5,1.5-1.5,2.6v16.2c0,2.3,2.5,3.8,4.5,2.6l14-8.1  C89.4,78.8,90,77.8,90,76.7z"/><path d="M65.7,24.3l-14.2,8.2c-0.9,0.5-2.1,0.5-3,0l-14.2-8.2c-2-1.2-2-4,0-5.2l14.2-8.2c0.9-0.5,2.1-0.5,3,0l14.2,8.2  C67.7,20.2,67.7,23.1,65.7,24.3z"/><path d="M68.7,30.2L68,30.6c-2,1.2-2,4,0,5.2l7.1,4.1c0.9,0.5,1.5,1.5,1.5,2.6v7.6c0,2.3,2.5,3.8,4.5,2.6l0.7-0.4  c0.9-0.5,1.5-1.5,1.5-2.6V38.7c0-1.1-0.6-2.1-1.5-2.6l-10.1-5.8C70.8,29.7,69.6,29.7,68.7,30.2z"/><path d="M10,76.7V60.6c0-2.3,2.5-3.8,4.5-2.6l14,8.1c0.9,0.5,1.5,1.5,1.5,2.6v16.2c0,2.3-2.5,3.8-4.5,2.6l-14-8.1  C10.6,78.8,10,77.8,10,76.7z"/><path d="M31.3,30.2l0.7,0.4c2,1.2,2,4,0,5.2l-7.1,4.1c-0.9,0.5-1.5,1.5-1.5,2.6l0,7.6c0,2.3-2.5,3.8-4.5,2.6l-0.7-0.4  c-0.9-0.5-1.5-1.5-1.5-2.6l0-11.1c0-1.1,0.6-2.1,1.5-2.6l10.1-5.8C29.2,29.7,30.4,29.7,31.3,30.2z"/></svg>