<svg xmlns="http://www.w3.org/2000/svg" xmlns:xlink="http://www.w3.org/1999/xlink" version="1.1" x="0px" y="0px" viewBox="0 0 100 100" style="enable-background:new 0 0 100 100;" xml:space="preserve"><path d="M63.4,49c-0.6,7.8,5.6,14.3,13.2,14.4c5.4,0,10.4,3,12.4,8c3.8,9.6-3.3,18.7-12.4,18.7c-7.4,0-13.2-6.4-13.3-13.8  c-0.3-21.7-17.8-39.2-39.5-39.5C16.4,36.6,10,30.8,10,23.4C9.9,14.3,19.1,7.3,28.7,11c5,2,8,7,8,12.4c0,7.7,6.6,13.8,14.4,13.2  c7-0.5,12.1-6.7,12.3-13.7c0.2-7.9,7.3-14,15.4-12.8C84.4,11,89,15.6,89.8,21.2c1.2,8.1-4.9,15.2-12.8,15.4  C70,36.9,63.9,41.9,63.4,49z"/><path d="M31.7,90C19.7,90,10,80.3,10,68.3c0-12,9.7-21.7,21.7-21.7c12,0,21.7,9.7,21.7,21.7C53.3,80.3,43.6,90,31.7,90z"/></svg>