<svg xmlns="http://www.w3.org/2000/svg" xmlns:xlink="http://www.w3.org/1999/xlink" version="1.1" x="0px" y="0px" viewBox="0 0 100 100" style="enable-background:new 0 0 100 100;" xml:space="preserve"><path d="M10,50v32.6c0,4.1,3.3,7.4,7.4,7.4H50c22.1,0,40-17.9,40-40V17.4c0-4.1-3.3-7.4-7.4-7.4H50C27.9,10,10,27.9,10,50z   M23.4,52.2c-1.3-16.4,12.3-30,28.7-28.7c12.9,1,23.4,11.5,24.4,24.4c1.3,16.4-12.3,30-28.7,28.7C34.9,75.6,24.4,65.1,23.4,52.2z"/><path d="M30,50c0,11,9,20,20,20c11,0,20-9,20-20c0-11-9-20-20-20C39,30,30,39,30,50z M36.7,50c0-7.4,6-13.3,13.3-13.3  s13.3,6,13.3,13.3s-6,13.3-13.3,13.3S36.7,57.4,36.7,50z"/><circle cx="50" cy="50" r="6.7"/></svg>