<svg xmlns="http://www.w3.org/2000/svg" xmlns:xlink="http://www.w3.org/1999/xlink" version="1.1" x="0px" y="0px" viewBox="0 0 100 100" style="enable-background:new 0 0 100 100;" xml:space="preserve"><path d="M68,32c3,3,5.9,6.2,8.6,9.3c1.3,1.5,3.7,1.4,4.8-0.3c8.2-12.9,11.1-24.1,6.4-28.8C83,7.6,71.9,10.4,59,18.7  c-1.7,1.1-1.8,3.5-0.3,4.8C61.8,26.1,64.9,29,68,32z"/><path d="M32,68c-3-3-5.9-6.2-8.6-9.3c-1.3-1.5-3.7-1.4-4.8,0.3C10.4,71.9,7.6,83,12.3,87.7c4.7,4.7,15.9,1.8,28.8-6.4  c1.7-1.1,1.8-3.5,0.3-4.8C38.2,73.9,35.1,71,32,68z"/><path d="M73.5,51.9c0.9-1.1,0.9-2.6,0-3.7c-3.1-3.8-6.5-7.6-10.3-11.4c-3.8-3.8-7.6-7.2-11.4-10.3c-1.1-0.9-2.6-0.9-3.7,0  c-3.8,3.1-7.6,6.5-11.4,10.3c-3.8,3.8-7.2,7.6-10.3,11.4c-0.9,1.1-0.9,2.6,0,3.7c3.1,3.8,6.5,7.6,10.3,11.4  c3.8,3.8,7.6,7.2,11.4,10.3c1.1,0.9,2.6,0.9,3.7,0c3.8-3.1,7.6-6.5,11.4-10.3C67,59.5,70.4,55.7,73.5,51.9z"/><path d="M32,32c3.1-3.1,6.2-5.9,9.3-8.6c1.5-1.3,1.4-3.7-0.3-4.8C28.1,10.4,17,7.6,12.3,12.3C7.6,17,10.4,28.1,18.6,41  c1.1,1.7,3.5,1.8,4.8,0.3C26.1,38.2,29,35.1,32,32z"/><path d="M68,68c-3.1,3.1-6.2,5.9-9.3,8.6c-1.5,1.3-1.4,3.7,0.3,4.8c12.9,8.2,24.1,11.1,28.8,6.4c4.7-4.7,1.8-15.9-6.4-28.8  c-1.1-1.7-3.5-1.8-4.8-0.3C73.9,61.8,71,64.9,68,68z"/></svg>