<svg xmlns="http://www.w3.org/2000/svg" xmlns:xlink="http://www.w3.org/1999/xlink" version="1.1" x="0px" y="0px" viewBox="0 0 100 100" style="enable-background:new 0 0 100 100;" xml:space="preserve"><path d="M24.2,52.8c0.8,1.1,1.8,1.8,3,2c1,0.2,1.9,0.9,2.3,1.8l13.1,31.5c0.5,1.1,1.6,1.8,2.8,1.8H47c1.7,0,3-1.3,3-3V13  c0-1.7-1.3-3-3-3h-1.7c-1.2,0-2.3,0.7-2.8,1.8L29.4,43.4c-0.4,1-1.3,1.6-2.3,1.8c-1.1,0.3-2.2,0.9-3,2  C23.1,48.9,23.1,51.1,24.2,52.8z"/><circle cx="15" cy="50" r="5"/><path d="M90,40v20c0,1.8-1.5,3.3-3.3,3.3h0c-1.8,0-3.3-1.5-3.3-3.3V40c0-1.8,1.5-3.3,3.3-3.3h0C88.5,36.7,90,38.2,90,40z"/><path d="M76.7,26.7v46.7c0,1.8-1.5,3.3-3.3,3.3h0c-1.8,0-3.3-1.5-3.3-3.3V26.7c0-1.8,1.5-3.3,3.3-3.3h0  C75.2,23.3,76.7,24.8,76.7,26.7z"/><path d="M63.3,43.3v13.3c0,1.8-1.5,3.3-3.3,3.3h0c-1.8,0-3.3-1.5-3.3-3.3V43.3c0-1.8,1.5-3.3,3.3-3.3h0C61.8,40,63.3,41.5,63.3,43.3  z"/></svg>