<svg xmlns="http://www.w3.org/2000/svg" xmlns:xlink="http://www.w3.org/1999/xlink" version="1.1" x="0px" y="0px" viewBox="0 0 100 100" style="enable-background:new 0 0 100 100;" xml:space="preserve"><path d="M87,36.7H63.3V13c0-1.7,1.3-3,3-3H87c1.7,0,3,1.3,3,3v20.7C90,35.3,88.7,36.7,87,36.7z"/><path d="M63.3,63.3H36.7V39.7c0-1.7,1.3-3,3-3h23.7V63.3z"/><path d="M33.7,90H13c-1.7,0-3-1.3-3-3V66.3c0-1.7,1.3-3,3-3h23.7V87C36.7,88.7,35.3,90,33.7,90z"/><path d="M13,10h19.2c1.7,0,2.5,2,1.3,3.2L13.2,33.5C12,34.7,10,33.8,10,32.2V13C10,11.3,11.3,10,13,10z"/><path d="M87,90H66.3c-1.7,0-3-1.3-3-3V63.3H87c1.7,0,3,1.3,3,3V87C90,88.7,88.7,90,87,90z"/></svg>