<svg xmlns="http://www.w3.org/2000/svg" xmlns:xlink="http://www.w3.org/1999/xlink" version="1.1" x="0px" y="0px" viewBox="0 0 100 100" style="enable-background:new 0 0 100 100;" xml:space="preserve"><path d="M90,14.7c0-2.6-2.1-4.7-4.7-4.7l-18.7,0c-12.9,0-23.4,10.5-23.4,23.4c0,12.9,10.5,23.4,23.4,23.4C79.5,56.9,90,46.4,90,33.4  L90,14.7z"/><path d="M10,85.3c0,2.6,2.1,4.7,4.7,4.7h18.7c13.4,0,24.2-11.3,23.4-24.9c-0.7-11.7-10.2-21.2-21.9-21.9C21.3,42.3,10,53.1,10,66.6  L10,85.3z"/><circle cx="23.3" cy="23.3" r="13.3"/><path d="M78.3,66.7c6.4,0,11.7,5.2,11.7,11.7C90,84.8,84.8,90,78.3,90c-6.4,0-11.7-5.2-11.7-11.7C66.7,71.9,71.9,66.7,78.3,66.7z"/></svg>