<svg xmlns="http://www.w3.org/2000/svg" xmlns:xlink="http://www.w3.org/1999/xlink" version="1.1" x="0px" y="0px" viewBox="0 0 100 100" style="enable-background:new 0 0 100 100;" xml:space="preserve"><path d="M87.3,78.8L67.1,45.2c-0.6-1-0.6-2.2,0-3.1l6.7-10.9c1.2-2-0.2-4.6-2.6-4.6H57.7c-1.1,0-2-0.6-2.6-1.5L52.6,21  c-1.2-1.9-4-1.9-5.1,0l-2.6,4.3c-0.5,0.9-1.5,1.5-2.6,1.5H28.7c-2.3,0-3.8,2.6-2.6,4.6l6.7,10.9c0.6,1,0.6,2.2,0,3.1L12.7,78.8  c-1.2,2,0.2,4.5,2.6,4.5h69.4C87,83.3,88.5,80.8,87.3,78.8z M52.6,65.8l7.1-11.6c1.2-1.9,4-1.9,5.1,0l10.7,17.8  c1.2,2-0.2,4.5-2.6,4.5H27.1c-2.3,0-3.8-2.5-2.6-4.5l10.7-17.8c1.2-1.9,3.9-1.9,5.1,0l7.1,11.6C48.6,67.8,51.4,67.8,52.6,65.8z"/></svg>