<svg xmlns="http://www.w3.org/2000/svg" xmlns:xlink="http://www.w3.org/1999/xlink" version="1.1" x="0px" y="0px" viewBox="0 0 100 100" style="enable-background:new 0 0 100 100;" xml:space="preserve"><path d="M76.5,46.5C75,66.1,59.4,81.7,39.8,83.2c-1.8,0.1-3.1,1.6-3.1,3.3v0c0,2,1.7,3.5,3.6,3.3c22.9-1.8,41.2-20,42.9-42.9  c0.1-1.9-1.4-3.6-3.3-3.6l0,0C78.1,43.3,76.7,44.7,76.5,46.5z"/><path d="M36.7,13.5c0-2,1.7-3.5,3.7-3.3C57,12,70,26.2,70,43.3c0,17.2-13,31.3-29.6,33.1c-2,0.2-3.7-1.3-3.7-3.3l0,0  c0-1.7,1.2-3.1,2.9-3.3c13.4-1.5,23.8-12.8,23.8-26.5c0-13.7-10.4-25.1-23.8-26.5C37.9,16.6,36.7,15.2,36.7,13.5L36.7,13.5z"/><path d="M17,39.9c1.7-9.8,10.4-17.1,20.8-16.5c10.1,0.5,18.4,8.8,18.9,18.9c0.5,10.4-6.8,19.1-16.5,20.8c-1.8,0.3-3.4-1.1-3.4-3  l0-13.7c0-1.7-1.3-3-3-3l-13.7,0C18.1,43.3,16.6,41.7,17,39.9z"/></svg>