<svg xmlns="http://www.w3.org/2000/svg" xmlns:xlink="http://www.w3.org/1999/xlink" version="1.1" x="0px" y="0px" viewBox="0 0 100 100" style="enable-background:new 0 0 100 100;" xml:space="preserve"><path d="M70,33.5L51.5,22.7c-0.9-0.5-2.1-0.5-3,0L30,33.5c-0.9,0.5-2.1,0.5-3,0l-4.2-2.4c-2-1.2-2-4,0-5.2l25.7-15  c0.9-0.5,2.1-0.5,3,0l25.7,15c2,1.2,2,4,0,5.2L73,33.5C72.1,34.1,70.9,34.1,70,33.5z"/><path d="M37.5,62.2l10.9-6.4c0.9-0.5,2.1-0.5,3,0l11,6.4c1,0.6,1,2.1,0,2.7l-10.9,6.4c-0.9,0.5-2.1,0.5-3,0l-11-6.4  C36.5,64.3,36.5,62.8,37.5,62.2z"/><path d="M57.9,34.3l8.8,5.1c0.9,0.5,1.5,1.5,1.5,2.6v12.7c0,1.3-1.4,2.1-2.5,1.4l-10.8-6.3c-0.9-0.5-1.5-1.5-1.5-2.6V36.9  C53.4,34.6,55.9,33.2,57.9,34.3z"/><path d="M45.1,49.9l-11,6.4c-1,0.6-2.3-0.1-2.3-1.3V42.1c0-1.1,0.6-2.1,1.5-2.6l8.8-5.1c2-1.2,4.5,0.3,4.5,2.6v10.4  C46.6,48.4,46.1,49.3,45.1,49.9z"/><path d="M83.5,72.4l-25.6,15c-2,1.2-4.5-0.3-4.5-2.6v-4.9c0-1.1,0.6-2.1,1.5-2.6l18.6-10.9c0.9-0.5,1.5-1.5,1.5-2.6V42.1  c0-1.1,0.6-2.1,1.5-2.6l4.1-2.4c2-1.2,4.5,0.3,4.5,2.6l0,30.1C85,70.8,84.4,71.8,83.5,72.4z"/><path d="M25.1,42.1v21.8c0,1.1,0.6,2.1,1.5,2.6l18.6,10.9c0.9,0.5,1.5,1.5,1.5,2.6v4.9c0,2.3-2.5,3.8-4.5,2.6l-25.6-15  c-0.9-0.5-1.5-1.5-1.5-2.6V39.7c0-2.3,2.5-3.8,4.5-2.6l4.1,2.4C24.5,40,25.1,41,25.1,42.1z"/></svg>