<svg xmlns="http://www.w3.org/2000/svg" xmlns:xlink="http://www.w3.org/1999/xlink" version="1.1" x="0px" y="0px" viewBox="0 0 100 100" style="enable-background:new 0 0 100 100;" xml:space="preserve"><path d="M38,62l-9.9-9.9c-1.2-1.2-1.2-3.1,0-4.2L38,38c1.2-1.2,3.1-1.2,4.2,0l9.9,9.9c1.2,1.2,1.2,3.1,0,4.2L42.2,62  C41,63.2,39.1,63.2,38,62z"/><path d="M56.8,56.8l-9.9,9.9c-1.2,1.2-1.2,3.1,0,4.2l18.1,18.1c0.6,0.6,1.3,0.9,2.1,0.9h23.9c1.2,0,1.7-1.4,0.9-2.2L61.1,56.8  C59.9,55.7,58,55.7,56.8,56.8z"/><path d="M46.9,33.3l9.9,9.9c1.2,1.2,3.1,1.2,4.2,0L92,12.2c0.8-0.8,0.2-2.2-0.9-2.2H67.2c-0.8,0-1.6,0.3-2.1,0.9L46.9,29  C45.8,30.2,45.8,32.1,46.9,33.3z"/><path d="M19.1,56.8l-4,4c-0.6,0.6-0.9,1.3-0.9,2.1v22c0,1.9,2.2,2.8,3.6,1.5L33.3,71c1.2-1.2,1.2-3.1,0-4.2l-9.9-9.9  C22.2,55.7,20.3,55.7,19.1,56.8z"/><path d="M33.3,29L17.8,13.6c-1.3-1.3-3.6-0.4-3.6,1.5v22c0,0.8,0.3,1.6,0.9,2.1l4,4c1.2,1.2,3.1,1.2,4.2,0l9.9-9.9  C34.4,32.1,34.4,30.2,33.3,29z"/></svg>