<svg xmlns="http://www.w3.org/2000/svg" xmlns:xlink="http://www.w3.org/1999/xlink" version="1.1" x="0px" y="0px" viewBox="0 0 100 100" style="enable-background:new 0 0 100 100;" xml:space="preserve"><path d="M31.4,35.6L12.1,54.9c-1.1,1.1-1.1,3,0,4.1l0.6,0.6c1.1,1.1,3,1.1,4.1,0l31.1-31.1c1.1-1.1,3-1.1,4.1,0l0.6,0.6  c1.1,1.1,1.1,3,0,4.1L28.4,57.4c-1.1,1.1-1.1,3,0,4.1l0.6,0.6c1.1,1.1,3,1.1,4.1,0L62,33.3c1.1-1.1,3-1.1,4.1,0l0.6,0.6  c1.1,1.1,1.1,3,0,4.1v0L21.5,83.2c-1.1,1.1-1.1,3,0,4.1l0.6,0.6c1.1,1.1,3,1.1,4.1,0l50-50c1.1-1.1,3-1.1,4.1,0l0.6,0.6  c1.1,1.1,1.1,3,0,4.1L40.3,83.2c-1.1,1.1-1.1,3,0,4.1l0.6,0.6c1.1,1.1,3,1.1,4.1,0l33.7-28.7c1.5-1.3,3.5,0.9,2.1,2.3l0,0l-7.6,7.6  c-1.1,1.1-1.1,3,0,4.1L85,85c1.8,1.8,5,0.5,5-2.1V12.9c0-1.6-1.3-2.9-2.9-2.9H17c-2.6,0-3.9,3.1-2.1,5l16.5,16.5  C32.6,32.6,32.6,34.4,31.4,35.6z"/></svg>