<svg xmlns="http://www.w3.org/2000/svg" xmlns:xlink="http://www.w3.org/1999/xlink" version="1.1" x="0px" y="0px" viewBox="0 0 100 100" style="enable-background:new 0 0 100 100;" xml:space="preserve"><path d="M64.1,22.6L47,49.6c-1.6,2.5,0.2,5.7,3.1,5.7h34.5c2.4,0,3.8-2.6,2.5-4.6L69.2,22.6C68,20.8,65.3,20.8,64.1,22.6z"/><path d="M39.8,46.7H18.5c-2.4,0-3.8,2.6-2.5,4.6l17.9,28.1c1.2,1.9,3.9,1.9,5.1,0l10.8-16.9c0.7-1.1-0.1-2.4-1.3-2.4h-8.7  c-2.4,0-3.8-2.6-2.5-4.6l4-6.3C41.8,48,41,46.7,39.8,46.7z"/></svg>