<svg xmlns="http://www.w3.org/2000/svg" xmlns:xlink="http://www.w3.org/1999/xlink" version="1.1" x="0px" y="0px" viewBox="0 0 100 100" style="enable-background:new 0 0 100 100;" xml:space="preserve"><path d="M16.1,45c2.8,0,5,2.2,5,5c0,2.8-2.2,5-5,5c-2.8,0-5-2.2-5-5C11.1,47.2,13.3,45,16.1,45z"/><path d="M26.1,20c2.8,0,5,2.2,5,5s-2.2,5-5,5c-2.8,0-5-2.2-5-5S23.3,20,26.1,20z"/><path d="M21.1,75c0-2.8,2.2-5,5-5c2.8,0,5,2.2,5,5c0,2.8-2.2,5-5,5C23.3,80,21.1,77.8,21.1,75z"/><path d="M43,55.6l-6.6,26.6c-0.7,2.7,2.4,4.8,4.6,3.2l46.6-32.9c1.7-1.2,1.7-3.7,0-4.9L41,14.7c-2.3-1.6-5.3,0.5-4.6,3.2L43,44.4  c0.3,1.3,1.5,2.3,2.9,2.3l7.2,0c1.1,0,2.1-0.5,2.6-1.5c1.7-3.2,5.1-5.3,9-5.2c5.2,0.1,9.5,4.5,9.7,9.7c0.2,5.7-4.4,10.3-10,10.3  c-3.8,0-7-2.1-8.7-5.2c-0.5-0.9-1.5-1.5-2.6-1.5c-2,0-5.1,0-7.2,0C44.6,53.3,43.4,54.3,43,55.6z"/></svg>