<svg xmlns="http://www.w3.org/2000/svg" xmlns:xlink="http://www.w3.org/1999/xlink" version="1.1" x="0px" y="0px" viewBox="0 0 100 100" style="enable-background:new 0 0 100 100;" xml:space="preserve"><path d="M33.7,27.1c-7.6,4.4-13.3,11.6-15.5,20.3c-0.2,0.9,0.6,1.8,1.5,1.6c1-0.3,2.1-0.5,3.2-0.6c1.2-0.1,2.2-0.9,2.6-2  c1.7-4.5,4.6-8.5,8.3-11.4c1.3-1,3.2-0.8,4.2,0.5c2.7,3.7,7.1,6.1,12,6.1c8.5,0,15.4-7.1,15-15.7c-0.3-7.3-7-13.9-14.2-14.2  c-8-0.4-14.7,5.5-15.6,13.2C35,25.8,34.5,26.7,33.7,27.1z"/><path d="M10,70.3c0.1,7.5,6.1,13.9,13.5,14.6c2.6,0.3,5.1-0.2,7.3-1.2c0.9-0.4,1.9-0.4,2.7,0.1c4.8,2.8,10.5,4.4,16.5,4.4  c2.8,0,5.6-0.4,8.2-1.1c1.2-0.3,1.7-1.7,0.8-2.6c-0.6-0.7-1.2-1.4-1.7-2.1c-0.7-1-1.8-1.4-3-1.2c-1.4,0.2-2.9,0.4-4.4,0.4  c-3.4,0-6.6-0.7-9.6-1.9c-1.5-0.6-2.2-2.4-1.6-3.9C39.6,74,40,72.1,40,70c0-8.3-6.7-15-15-15C16.6,55,9.8,61.9,10,70.3z"/><path d="M50,47.2c4.6,0,8.3,3.7,8.3,8.3c0,4.6-3.7,8.3-8.3,8.3s-8.3-3.7-8.3-8.3C41.7,50.9,45.4,47.2,50,47.2z"/><path d="M85.3,81.6c6.2-4.3,8.2-12.8,4.6-19.4c-1.2-2.3-3-4.1-5-5.4c-0.8-0.5-1.4-1.4-1.4-2.3c-0.3-5.6-2.1-11.2-5.5-16.2  c-1.6-2.4-3.4-4.4-5.5-6.2c-0.9-0.8-2.4-0.4-2.7,0.8c-0.2,0.9-0.5,1.7-0.8,2.6c-0.4,1.1-0.2,2.3,0.6,3.2c1,1,1.9,2.2,2.8,3.4  c1.9,2.8,3.1,5.9,3.8,9c0.3,1.6-0.8,3.2-2.4,3.5c-1.9,0.4-3.8,1.1-5.5,2.3c-6.9,4.6-8.7,13.9-4.1,20.8  C68.9,84.6,78.4,86.4,85.3,81.6z"/></svg>