<svg xmlns="http://www.w3.org/2000/svg" xmlns:xlink="http://www.w3.org/1999/xlink" version="1.1" x="0px" y="0px" viewBox="0 0 100 100" style="enable-background:new 0 0 100 100;" xml:space="preserve"><path d="M58.6,84.6c-1.3,1.7-0.4,4.2,1.7,4.7c1.8,0.4,3.6,0.6,5.5,0.6C79.6,90,90.7,78.5,90,64.5c-0.6-12-10.2-21.8-22.1-22.8  c-2.6-0.2-5.2,0-7.6,0.6c-2.1,0.5-3,3-1.7,4.7c4,5.2,6.4,11.7,6.4,18.8C65,72.9,62.6,79.4,58.6,84.6z"/><path d="M15.4,58.6c-1.7-1.3-4.2-0.4-4.7,1.7c-0.4,1.8-0.6,3.6-0.6,5.5C10,79.6,21.6,90.7,35.5,90c11.9-0.6,21.8-10.2,22.7-22.2  c0.2-2.6,0-5.2-0.6-7.5c-0.5-2.1-3-3-4.7-1.7c-5.2,4-11.7,6.4-18.8,6.4C27.1,65,20.6,62.6,15.4,58.6z"/><path d="M10,32.8c-0.8,14,10.3,25.5,24.1,25.5c1.9,0,3.7-0.2,5.5-0.6c2.1-0.5,3.1-3,1.7-4.7c-4-5.2-6.4-11.7-6.4-18.8  c0-7.1,2.4-13.6,6.4-18.8c1.3-1.7,0.4-4.2-1.7-4.7c-2.4-0.6-4.9-0.8-7.5-0.6C20.3,11,10.7,20.8,10,32.8z"/><path d="M84.6,41.4c1.7,1.3,4.2,0.4,4.7-1.7c0.4-1.8,0.6-3.6,0.6-5.5C90,20.4,78.5,9.3,64.5,10c-12,0.6-21.8,10.2-22.8,22.1  c-0.2,2.6,0,5.2,0.6,7.6c0.5,2.1,3,3,4.7,1.7c5.2-4,11.7-6.4,18.8-6.4C72.9,35,79.4,37.4,84.6,41.4z"/></svg>