<svg xmlns="http://www.w3.org/2000/svg" xmlns:xlink="http://www.w3.org/1999/xlink" version="1.1" x="0px" y="0px" viewBox="0 0 100 100" style="enable-background:new 0 0 100 100;" xml:space="preserve"><path d="M83.3,28.4V17.7c0-0.6-0.4-1-1-1H71.6c-0.9,0-1.3-1.1-0.7-1.7l4.7-4.7c0.2-0.2,0.4-0.3,0.7-0.3H89c0.6,0,1,0.4,1,1v12.7  c0,0.3-0.1,0.5-0.3,0.7L85,29.1C84.4,29.7,83.3,29.3,83.3,28.4z"/><path d="M28.4,16.7H17.7c-0.6,0-1,0.4-1,1v10.7c0,0.9-1.1,1.3-1.7,0.7l-4.7-4.7C10.1,24.3,10,24,10,23.7V11c0-0.6,0.4-1,1-1h12.7  c0.3,0,0.5,0.1,0.7,0.3l4.7,4.7C29.7,15.6,29.3,16.7,28.4,16.7z"/><path d="M16.7,71.6v10.7c0,0.6,0.4,1,1,1h10.7c0.9,0,1.3,1.1,0.7,1.7l-4.7,4.7C24.3,89.9,24,90,23.7,90H11c-0.6,0-1-0.4-1-1V76.3  c0-0.3,0.1-0.5,0.3-0.7l4.7-4.7C15.6,70.3,16.7,70.7,16.7,71.6z"/><path d="M71.6,83.3h10.7c0.6,0,1-0.4,1-1V71.6c0-0.9,1.1-1.3,1.7-0.7l4.7,4.7c0.2,0.2,0.3,0.4,0.3,0.7V89c0,0.6-0.4,1-1,1H76.3  c-0.3,0-0.5-0.1-0.7-0.3L70.9,85C70.3,84.4,70.7,83.3,71.6,83.3z"/><path d="M38,47.9l9.9-9.9c1.2-1.2,3.1-1.2,4.2,0l9.9,9.9c1.2,1.2,1.2,3.1,0,4.2L52.1,62c-1.2,1.2-3.1,1.2-4.2,0L38,52.1  C36.8,51,36.8,49.1,38,47.9z"/><path d="M66.7,56.8l-9.9,9.9c-1.2,1.2-1.2,3.1,0,4.2l4.8,4.8c0.6,0.6,1.3,0.9,2.1,0.9h11.2c1,0,1.7-0.8,1.7-1.7V63.8  c0-0.8-0.3-1.6-0.9-2.1L71,56.8C69.8,55.7,67.9,55.7,66.7,56.8z"/><path d="M29,56.8l-4.8,4.8c-0.6,0.6-0.9,1.3-0.9,2.1v11.2c0,1,0.8,1.7,1.7,1.7h11.2c0.8,0,1.6-0.3,2.1-0.9l4.8-4.8  c1.2-1.2,1.2-3.1,0-4.2l-9.9-9.9C32.1,55.7,30.2,55.7,29,56.8z"/><path d="M43.2,29l-4.8-4.8c-0.6-0.6-1.3-0.9-2.1-0.9H25.1c-1,0-1.7,0.8-1.7,1.7v11.2c0,0.8,0.3,1.6,0.9,2.1l4.8,4.8  c1.2,1.2,3.1,1.2,4.2,0l9.9-9.9C44.3,32.1,44.3,30.2,43.2,29z"/><path d="M61.7,24.2L56.8,29c-1.2,1.2-1.2,3.1,0,4.2l9.9,9.9c1.2,1.2,3.1,1.2,4.2,0l4.8-4.8c0.6-0.6,0.9-1.3,0.9-2.1V25.1  c0-1-0.8-1.7-1.7-1.7H63.8C63,23.3,62.2,23.6,61.7,24.2z"/></svg>