<svg xmlns="http://www.w3.org/2000/svg" xmlns:xlink="http://www.w3.org/1999/xlink" version="1.1" x="0px" y="0px" viewBox="0 0 100 100" style="enable-background:new 0 0 100 100;" xml:space="preserve"><circle cx="85" cy="50" r="5"/><circle cx="15" cy="50" r="5"/><path d="M23.4,47.8c-1.3,16.4,12.3,30,28.7,28.7c12.9-1,23.4-11.5,24.4-24.4c1.3-16.4-12.3-30-28.7-28.7  C34.9,24.4,24.4,34.9,23.4,47.8z M65,36.8c-0.6-0.1-1.1-0.2-1.7-0.2c-5.5,0-10.3,3.4-12.3,8.2c-0.5,1.1-1.6,1.8-2.7,1.8  c-3.3,0-9.9,0-14.1,0c-2.1,0-3.6-2.1-2.8-4.1C34.4,35.2,41.6,30,50,30C56,30,61.4,32.7,65,36.8z M31.5,57.4c-0.8-2,0.7-4.1,2.8-4.1  h14.1c1.2,0,2.3,0.7,2.7,1.8c2,4.8,6.7,8.2,12.3,8.2c0.6,0,1.1-0.1,1.7-0.2c-3.7,4.2-9,6.8-15,6.8C41.6,70,34.4,64.8,31.5,57.4z"/></svg>