<svg xmlns="http://www.w3.org/2000/svg" xmlns:xlink="http://www.w3.org/1999/xlink" version="1.1" x="0px" y="0px" viewBox="0 0 100 100" style="enable-background:new 0 0 100 100;" xml:space="preserve"><path d="M36.7,16.3c0-1.6,1.3-3,3-3H87c1.7,0,3,1.4,3,3v14c0,1.6-1.3,3-3,3H39.7c-1.7,0-3-1.4-3-3V16.3z"/><circle cx="20" cy="23.3" r="10"/><path d="M63.3,57c0,1.7-1.3,3-3,3H13c-1.6,0-3-1.3-3-3V43c0-1.7,1.4-3,3-3h47.3c1.7,0,3,1.3,3,3V57z"/><circle cx="80" cy="50" r="10"/><path d="M36.7,69.7c0-1.7,1.3-3,3-3H87c1.7,0,3,1.3,3,3v14c0,1.7-1.3,3-3,3H39.7c-1.7,0-3-1.3-3-3V69.7z"/><circle cx="20" cy="76.7" r="10"/></svg>