<svg xmlns="http://www.w3.org/2000/svg" xmlns:xlink="http://www.w3.org/1999/xlink" version="1.1" x="0px" y="0px" viewBox="0 0 100 100" style="enable-background:new 0 0 100 100;" xml:space="preserve"><path d="M43,36.7c-0.9,0-1.7,0.4-2.2,1c-3,3.5-7.5,5.7-12.4,5.7c-5,0-9.4-2.2-12.4-5.7c-0.6-0.6-1.4-1-2.2-1H13c-1.7,0-3,1.3-3,3v10  c0,18.6,15.1,33.7,33.7,33.7h0c1.7,0,3-1.3,3-3V39.7c0-1.7-1.3-3-3-3H43z"/><circle cx="28.3" cy="28.7" r="10"/><path d="M86.3,36.7c-0.9,0-1.7,0.4-2.2,1c-3,3.5-7.5,5.7-12.4,5.7c-5,0-9.4-2.2-12.4-5.7c-0.6-0.6-1.4-1-2.2-1h-0.7  c-1.7,0-3,1.3-3,3v40.7c0,1.7,1.3,3,3,3h0C74.9,83.3,90,68.3,90,49.7v-10c0-1.7-1.3-3-3-3H86.3z"/><circle cx="71.7" cy="28.7" r="10"/></svg>