<svg xmlns="http://www.w3.org/2000/svg" xmlns:xlink="http://www.w3.org/1999/xlink" version="1.1" x="0px" y="0px" viewBox="0 0 100 100" style="enable-background:new 0 0 100 100;" xml:space="preserve"><path d="M47.4,11.5l-28.3,17c-1.5,0.9-2.4,2.5-2.4,4.3v34.3c0,1.8,0.9,3.4,2.4,4.3l28.3,17c1.6,1,3.6,1,5.1,0l28.3-17  c1.5-0.9,2.4-2.5,2.4-4.3V32.8c0-1.8-0.9-3.4-2.4-4.3l-28.3-17C51,10.6,49,10.6,47.4,11.5z M51.9,73.3  c-14.4,1.1-26.3-10.8-25.1-25.2c0.9-11.3,10.1-20.5,21.4-21.4c14.4-1.1,26.3,10.8,25.2,25.2C72.4,63.2,63.2,72.4,51.9,73.3z"/><path d="M37.1,47.9l10.8-10.8c1.2-1.2,3.1-1.2,4.2,0l10.8,10.8c1.2,1.2,1.2,3.1,0,4.2L52.1,62.9c-1.2,1.2-3.1,1.2-4.2,0L37.1,52.1  C35.9,50.9,35.9,49.1,37.1,47.9z"/></svg>