<svg xmlns="http://www.w3.org/2000/svg" xmlns:xlink="http://www.w3.org/1999/xlink" version="1.1" x="0px" y="0px" viewBox="0 0 100 100" style="enable-background:new 0 0 100 100;" xml:space="preserve"><circle cx="15" cy="40.8" r="5"/><circle cx="85" cy="40.8" r="5"/><circle cx="50" cy="24.2" r="5"/><path d="M50,37.5c-18.4,0-33.3,9.7-33.3,21.7c0,12,14.9,21.7,33.3,21.7c18.4,0,33.3-9.7,33.3-21.7C83.3,47.2,68.4,37.5,50,37.5z   M50.8,62.4c-3.4,0.5-6.2-2.3-5.7-5.7c0.3-2.1,2-3.8,4.1-4.2c3.4-0.5,6.2,2.3,5.7,5.7C54.6,60.4,52.9,62.1,50.8,62.4z"/></svg>